<svg width="880" height="916" viewBox="0 0 880 916" fill="none" xmlns="http://www.w3.org/2000/svg">
<path d="M292.183 164.65L442.798 139.993L491.183 810.232L312.687 819.955L292.183 164.65Z" fill="#2B1B57" fill-opacity="0.95"/>
<path d="M442.731 140.091L497.007 93.3739L850.716 563.052L756.312 617.556L670.078 556.383L612.922 599.05L627.506 717.19L491.195 810.391L442.731 140.091Z" fill="url(#paint0_linear_9_68)"/>
<path d="M674.707 549.858L669.958 546.489L665.292 549.972L608.136 592.639L604.413 595.419L604.982 600.03L618.97 713.336L498.171 795.93L451.001 143.528L495.754 105.008L838.888 560.643L756.755 608.062L674.707 549.858Z" stroke="#2B1B57" stroke-opacity="0.95" stroke-width="16"/>
<path d="M577.051 447.658C575.991 440.487 584.253 435.717 589.934 440.22L633.198 474.512C637.624 478.02 637.119 484.886 632.228 487.709L597.03 508.031C592.139 510.855 585.941 507.859 585.116 502.272L577.051 447.658Z" fill="#2B1B57" fill-opacity="0.95"/>
<path d="M385.89 109.188L496.411 93.2789L442.731 140.091L292.213 164.591L385.89 109.188Z" fill="#54B0F2"/>
<path d="M330.268 150.798L388.429 116.4L472.337 104.322L439.414 133.032L330.268 150.798Z" stroke="#2B1B57" stroke-opacity="0.95" stroke-width="15"/>
<path d="M670.078 556.383L756.216 617.391L688.033 612.813L643.544 576.097L670.078 556.383Z" fill="#2B1B57" fill-opacity="0.95"/>
<defs>
<linearGradient id="paint0_linear_9_68" x1="370.542" y1="166.389" x2="679.566" y2="701.635" gradientUnits="userSpaceOnUse">
<stop stop-color="#54B0F2"/>
<stop offset="1" stop-color="#E719A1" stop-opacity="0.38"/>
</linearGradient>
</defs>
</svg>
