<svg width="113" height="141" viewBox="0 0 113 141" fill="none" xmlns="http://www.w3.org/2000/svg">
<path d="M60.0326 5.13971L86.6118 15.8619L32.0221 136.02L2.33766 119.957L60.0326 5.13971Z" fill="#2B1B57" fill-opacity="0.95"/>
<path d="M86.5919 15.8721L99.6917 13.2251L113 129.204H92.7052L84.4959 110.107L71.3088 111.771L62.6629 133.553L32.0093 136.049L86.5919 15.8721Z" fill="url(#paint0_linear_9_71)"/>
<path d="M86.3334 109.318L85.7389 107.935L84.2456 108.123L71.0584 109.787L69.8859 109.935L69.4499 111.033L61.2623 131.66L35.2366 133.779L87.9901 17.63L97.9531 15.6168L110.757 127.204H94.0224L86.3334 109.318Z" stroke="#2B1B57" stroke-opacity="0.95" stroke-width="4"/>
<path d="M80.304 4.9057L99.6044 13.1494L86.5919 15.8721L60.0429 5.13259L80.304 4.9057Z" fill="#1166E4"/>
<path d="M65.0434 6.07666L80.1047 5.90799L96.2902 12.8212L86.6849 14.831L65.0434 6.07666Z" stroke="#2B1B57" stroke-opacity="0.95" stroke-width="2"/>
<path d="M84.4959 110.107L92.7052 129.166L82.138 121.603L78.3827 110.864L84.4959 110.107Z" fill="#2B1B57" fill-opacity="0.95"/>
<path d="M80.5321 79.8775C81.0024 79.0704 82.2242 79.2915 82.3818 80.2122L84.8196 94.4469C84.9172 95.0169 84.5125 95.5506 83.9373 95.6104L72.5148 96.7966C71.7009 96.8811 71.1355 96.0056 71.5475 95.2985L80.5321 79.8775Z" fill="#2B1B57" fill-opacity="0.95"/>
<defs>
<linearGradient id="paint0_linear_9_71" x1="72.5046" y1="13.2251" x2="72.5046" y2="136.049" gradientUnits="userSpaceOnUse">
<stop stop-color="#54B0F2"/>
<stop offset="1" stop-color="#E719A1" stop-opacity="0.38"/>
</linearGradient>
</defs>
</svg>
